<?xml version="1.0" standalone="no"?>
<!DOCTYPE svg PUBLIC "-//W3C//DTD SVG 20010904//EN"
 "http://www.w3.org/TR/2001/REC-SVG-20010904/DTD/svg10.dtd">
<svg version="1.0" xmlns="http://www.w3.org/2000/svg"
 width="837.000000pt" height="837.000000pt" viewBox="0 0 837.000000 837.000000"
 preserveAspectRatio="xMidYMid meet">
<metadata>
Created by potrace 1.14, written by Peter Selinger 2001-2017
</metadata>
<g transform="translate(0.000000,837.000000) scale(0.100000,-0.100000)"
fill="#000000" stroke="none">
<path d="M4870 7463 c0 -10 23 -43 50 -73 160 -177 230 -335 246 -560 l6 -75
-24 21 c-42 37 -52 45 -145 104 -182 118 -282 160 -473 202 -71 15 -238 45
-295 53 -16 2 -48 7 -69 11 -21 3 -53 8 -70 10 -76 9 -161 34 -236 69 -45 20
-124 66 -130 75 -3 4 -31 22 -62 40 -56 31 -58 31 -58 11 0 -30 45 -117 88
-171 20 -25 39 -50 43 -56 6 -7 -10 -6 -49 1 -74 16 -267 19 -357 6 -146 -21
-133 -18 -338 -81 -15 -5 -31 -10 -35 -11 -4 -1 -11 -3 -17 -5 -38 -12 -196
-55 -225 -60 -45 -8 -65 -12 -65 -14 0 -2 -37 -10 -75 -15 -145 -19 -283 -24
-378 -13 -51 6 -156 42 -176 60 -6 4 -22 8 -37 8 -54 0 -43 -80 25 -180 31
-45 133 -150 147 -150 4 0 14 -6 21 -13 7 -7 30 -23 51 -36 l37 -23 -62 -41
c-179 -119 -390 -334 -492 -502 -131 -213 -180 -278 -291 -388 -83 -82 -154
-131 -254 -178 -36 -17 -84 -40 -107 -50 -22 -10 -46 -19 -52 -19 -34 0 10
-46 74 -78 46 -23 200 -49 281 -47 29 0 53 -3 53 -7 0 -4 -15 -31 -34 -60 -35
-55 -116 -237 -116 -260 0 -8 -4 -18 -9 -24 -4 -5 -16 -51 -26 -102 -19 -99
-17 -252 3 -288 8 -15 6 -26 -10 -52 -11 -18 -17 -36 -13 -40 4 -4 10 -2 12 5
4 12 12 21 118 138 74 81 114 113 101 79 -5 -11 -10 -37 -12 -59 -2 -22 -6
-53 -9 -70 -2 -16 -7 -64 -10 -105 -4 -41 -8 -86 -11 -100 -3 -14 -6 -43 -8
-65 -2 -23 -6 -54 -10 -70 -3 -17 -8 -43 -11 -60 -11 -64 -15 -83 -29 -121
-29 -82 -69 -154 -122 -217 -30 -37 -54 -69 -54 -72 0 -10 25 -4 65 15 22 11
46 19 53 20 16 0 154 59 162 69 8 10 49 31 60 31 5 0 10 -6 10 -14 0 -7 31
-74 69 -148 38 -74 72 -152 75 -174 3 -21 8 -56 11 -76 11 -83 15 -106 30
-176 8 -40 15 -77 15 -81 0 -14 -107 -45 -165 -47 -114 -4 -107 -2 -95 -23 14
-28 71 -44 189 -55 32 -3 53 -13 79 -38 52 -47 53 -50 47 -83 -4 -16 -8 -43
-10 -59 -3 -15 -6 -35 -9 -45 -24 -84 -26 -319 -2 -411 9 -36 18 -70 19 -77 2
-7 6 -16 10 -19 4 -4 7 -13 7 -19 0 -20 89 -176 126 -222 19 -23 34 -44 34
-48 0 -18 173 -176 240 -219 41 -27 86 -57 100 -66 37 -24 224 -105 315 -135
44 -15 87 -30 95 -33 19 -6 20 -7 110 -25 104 -22 128 -26 180 -32 25 -3 52
-8 60 -10 13 -4 88 -11 205 -20 22 -1 70 -3 108 -4 l67 -1 0 -33 c0 -33 -3
-35 -113 -90 -63 -31 -131 -63 -153 -71 -21 -7 -70 -29 -109 -47 -38 -18 -72
-34 -75 -34 -30 -4 -117 -42 -148 -64 -56 -41 -115 -164 -128 -266 -5 -43 -15
-104 -20 -120 -22 -75 -48 -178 -65 -255 -11 -52 -22 -102 -24 -111 -2 -9 -6
-40 -10 -69 -4 -29 -8 -61 -10 -71 -4 -20 -7 -139 -6 -231 l1 -58 1523 0 1524
0 0 74 c1 41 4 80 8 85 3 6 3 11 -2 11 -4 0 -8 21 -8 48 -1 65 -13 170 -24
210 -5 18 -10 35 -10 37 1 8 -13 87 -18 110 -3 11 -8 36 -13 55 -50 215 -105
325 -218 436 -74 73 -88 84 -105 84 -8 0 -20 7 -27 15 -7 8 -19 15 -26 15 -8
0 -14 5 -14 10 0 6 -4 10 -9 10 -5 0 -40 19 -77 42 -38 23 -172 92 -299 154
-126 63 -241 120 -255 128 -14 8 -33 17 -42 20 -18 5 -20 13 -22 95 l-1 45
150 56 c186 70 358 145 495 217 96 51 228 129 240 143 3 3 24 18 47 33 50 35
159 139 197 189 l27 36 45 -25 c43 -24 47 -24 129 -14 122 17 207 51 327 132
31 22 61 39 67 39 32 0 237 242 285 338 12 23 21 31 29 25 27 -21 82 -14 124
14 55 37 86 79 136 183 38 79 41 92 44 187 1 56 -1 122 -6 147 -5 28 -5 46 1
46 5 0 15 14 22 31 26 61 -6 167 -61 207 -31 22 -92 41 -110 35 -7 -3 -34 14
-61 36 -27 23 -56 41 -65 41 -27 0 -27 13 -1 95 14 43 27 90 29 104 22 132 44
289 51 351 16 158 8 634 -12 733 -2 12 -7 40 -9 62 -11 86 -16 121 -20 135 -2
8 -7 31 -10 50 -3 19 -10 51 -15 70 -5 19 -11 44 -13 55 -17 92 -93 265 -154
348 l-35 47 69 -6 c57 -5 71 -4 82 10 20 24 2 53 -101 157 -92 93 -178 157
-255 190 l-48 21 35 14 c43 19 169 51 230 59 24 4 48 9 52 11 14 9 8 35 -9 41
-10 4 -38 24 -62 45 -163 142 -399 227 -600 216 l-87 -5 6 36 c29 171 -188
530 -423 698 -88 64 -145 94 -232 124 -38 13 -71 27 -73 32 -7 15 -42 7 -42
-10z"/>
</g>
</svg>
